<svg width="18" height="18" viewBox="0 0 18 18" fill="none" xmlns="http://www.w3.org/2000/svg">
<g id="heart_18">
<path id="heart" d="M5.14281 2.77121C5.0092 2.77115 4.87568 2.77816 4.74281 2.79221C3.96014 2.83198 3.20876 3.11208 2.59104 3.59434C1.97332 4.0766 1.51929 4.73757 1.29081 5.48721C1.03059 6.22792 0.972354 7.02458 1.1221 7.79526C1.27184 8.56594 1.62415 9.28283 2.14281 9.87221L8.44881 15.4202C8.60066 15.5543 8.79624 15.6283 8.99881 15.6283C9.20137 15.6283 9.39696 15.5543 9.54881 15.4202L15.8568 9.87121C16.3755 9.28183 16.7278 8.56494 16.8775 7.79426C17.0273 7.02358 16.969 6.22692 16.7088 5.48621C16.481 4.73594 16.0274 4.07415 15.4099 3.591C14.7923 3.10785 14.0408 2.82682 13.2578 2.78621C13.1249 2.77246 12.9914 2.76578 12.8578 2.76621C12.2822 2.77491 11.714 2.89724 11.1857 3.12617C10.6575 3.35509 10.1797 3.68611 9.77981 4.10021C9.67751 4.20361 9.55573 4.2857 9.4215 4.34172C9.28727 4.39775 9.14326 4.42659 8.99781 4.42659C8.85236 4.42659 8.70835 4.39775 8.57412 4.34172C8.43989 4.2857 8.3181 4.20361 8.21581 4.10021C7.81626 3.68734 7.33913 3.35742 6.81179 3.12936C6.28446 2.9013 5.71729 2.77959 5.14281 2.77121ZM5.14281 1.70021C5.85661 1.70684 6.56201 1.85493 7.21822 2.13592C7.87442 2.4169 8.4684 2.8252 8.96581 3.33721C8.97494 3.346 8.98713 3.35092 8.99981 3.35092C9.01249 3.35092 9.02468 3.346 9.03381 3.33721C9.53121 2.8252 10.1252 2.4169 10.7814 2.13592C11.4376 1.85493 12.143 1.70684 12.8568 1.70021C13.0275 1.69986 13.1981 1.70854 13.3678 1.72621C18.5138 2.25221 19.0468 8.40021 16.5598 10.6742L10.2438 16.2302C9.90012 16.533 9.45782 16.7 8.99981 16.7C8.54179 16.7 8.0995 16.533 7.75581 16.2302L1.43981 10.6742C-1.04719 8.40021 -0.514193 2.25221 4.63181 1.72621C4.80156 1.70854 4.97214 1.69986 5.14281 1.70021Z" fill="white"/>
</g>
</svg>
